<svg class="header__logo-svg" xmlns="http://www.w3.org/2000/svg" viewBox="0 0 257 105">
    <g fill="none" fill-rule="evenodd">
        <path d="M126.88 22.404c2.32 0 4.47-.342 5.845-.855.086 0 .172-.085.086-.17l-.43-1.624c0 .085 0 .085-.086.085-1.29.427-3.266.684-5.415.77v1.794Z" stroke="#4E473F" stroke-width=".527" />
        <path d="M132.295 19.67c.172 0 .258.17.086.256l-1.031.256v-.598c.43 0 .773.085.945.085" fill="#4E473F" fill-rule="nonzero" />
        <path d="m132.639 20.524-.258-.77c0-.085-.086-.085-.172-.085s-.43-.085-1.031-.085c.43-.171 1.031-.257 1.633-.257.258 0 .515 0 .687.086l.344 1.196c-.258-.085-.516-.085-.86-.085h-.343Z" stroke="#4E473F" stroke-width=".527" />
        <path d="M127.224 22.404c2.149-.086 4.212-.342 5.5-.855.087 0 .173-.085.087-.17l-.43-1.624c0 .085 0 .085-.086.085-1.203.427-3.008.684-4.985.77l-.086 1.794Zm5.415-1.88-.258-.77c0-.085-.086-.085-.172-.085s-.43-.085-1.031-.085c.43-.171 1.031-.257 1.633-.257.258 0 .515 0 .687.086l.344 1.196c-.258-.085-.516-.085-.86-.085h-.343Z" stroke="#4E473F" stroke-width=".527" />
        <path d="M139.944 35.223c0 .239.055.655.209 1.107-.096 1.13.464 2.397 1.166 2.397.946 0 2.15 0 2.493 1.025.258.77-.258 1.197-.86 1.624-.257-.17-1.46-.598-1.976-.256-.516.342-.086.684.086.769.171.085.515.17.773.085l-.602.513c-1.117.086-1.976-.683-1.46-1.282.43-.598 1.374-.598 2.148-.427.688.17.945-.256.945-.77 0-.341-.343-.854-1.03-.854-.603.086-1.118.257-2.064-.598a.929.929 0 0 0-.272-.185c-.157-1.082-.14-2.236.444-3.148Zm-2.083 1.67c.3.773.785 1.202 1.164 1.41-.18.05-.232.22.06.51-.522-.24-.95-.926-1.196-1.815Zm3.458-.73a.999.999 0 0 0 .484.502l.023.012c.04.43.339.882.697 1.452a3.949 3.949 0 0 1-1.086-.406c-.228-.479-.253-.887-.118-1.56Zm.238-20.605.106.009c.43 0 1.29.598 1.547 1.453-.086-.342.258-1.111.688-1.368-.172.513.086 1.197.258 1.282 0-.085.172-.341.515-.341 0 .313.067.588.16.82l-.016-.027a1.184 1.184 0 0 1-.144-.537c-.258.17-.343.427-.343.513-.344-.257-.516-.855-.516-1.197-.172.257-.172 1.026.086 1.368.344.17 1.89 1.025 1.89 2.905-.171-.342-.515-1.025-1.117-1.11 0 .427 1.29 2.136.172 3.845.688 1.795-.172 3.59-.258 4.53-.086.94.258 2.136 1.547 2.392-.257 0-1.117.171-1.117.513 0 .342.86.513 1.547.257.172.427 0 1.11-.344 1.452.774.513 1.461 2.137.43 3.248-.945 1.11-2.149.342-2.578.342a.884.884 0 0 0-.86.256c.086-.427.516-.598.774-.598.945.085 1.633.427 1.89-.256.258-.599-.171-1.197-.773-1.368-.258 1.197-1.719.684-2.063 1.282-.258-.77.43-1.71.43-2.222-.086-.77-1.29-.77-1.461.256-.172.599-.344 1.795 1.375 3.504-.257 0-.58 0-.87-.042-1.102-1.477-1.018-2.631-.935-3.462 0-.341.258-1.11 1.118-1.196.257 0 1.03.17.945 1.026-.086.427-.516 1.452-.516 1.709.602-.513 1.375.085 1.72-1.282.859.256 1.288.94 1.117 2.05.945-.512 1.203-2.392-.258-3.247.43-.427.515-.769.43-1.196-.688.17-2.321.085-2.579-1.538.172.17.43.854.945 1.025 0-.256.344-.427.602-.513-.516-.341-1.203-1.282-.945-2.563l.058-.243.116-.488c.284-1.22.499-2.432-.002-3.286.171 1.624-.516 3.076-1.29 4.53-.86 1.538 0 3.674 1.805 4.358-.515-.086-2.664-1.026-2.664-3.077l-.23.332-.462.665c-1.078 1.552-2.12 3.125-2.402 4.815 0-1.71 1.031-3.333 2.148-5.043-.515.257-1.375.513-2.75.342 2.32-.085 3.524-1.453 3.696-1.709.86-.77 1.375-1.624 1.633-2.564-.43.513-1.203.94-2.235 1.026 1.72-.428 2.407-1.624 2.407-1.795.172-.513.172-1.026.172-1.538-.258.342-.516.512-.86.683-.258 1.71-2.922.855-3.867 2.479l.092-.142-.092-.03c.97-1.93 3.464-1.286 3.969-2.486 2.729-1.882 1.1-4.693.586-5.12.258 0 .945.086 1.203.257-.258-.94-1.461-1.367-1.977-1.538-.515-.086-1.977-.598-2.234-1.624-.086-.342.171-.854.687-.769Zm-3.675 17.529c-.046.179-.087.353-.121.52-.307.203-.858.323-1.083.249.006-.055.015-.112.026-.173.346-.01.926-.263 1.178-.596Zm.408-1.79a.74.74 0 0 0 .28.166c-.518.22-1.353.82-1.741 1.744.214-.64.641-1.395 1.281-1.81Zm-2.041-1.97c.31-.464 1.043-.998 1.943-.906.41.258.68.652.807.905-.43-.085-1.891-.17-2.32.171l.083-.052a1.158 1.158 0 0 0-.513-.119Zm1.03-1.454c.7-.601 1.347-.45 1.986-.24l.294.098c.382.127.764.238 1.154.18.19.112.391.195.606.219-1.033.807-2.194-.025-3.155-.005a1.896 1.896 0 0 0-.884-.252Zm.688-6.58c.098.097.25.276.38.507-.154.638-.705 1.829-3.388 2.57l.24-.54c.142.039.292.076.448.112l.257-.088c.94-.335 1.827-.838 2.063-2.561Zm5.15.107.007.064c0 .624-.17 1.08-.417 1.503a.875.875 0 0 0-.27-.05c.27-.225.588-.92.68-1.517Zm-3.688-.534c.133 0 .318.051.475.234-.106.562-.392.796-.688.995l-.19.126c-.218.148-.423.311-.543.61.037-.145.058-.351.057-.56l.03.133c.687-.342.859-1.282.859-1.538Zm-5.501-9.828c-.344 2.136 2.235 2.82 2.149 4.187.172-.085.515-.427.601-.94.516.513 1.461.94 2.063.684-.258-.086-.43-.598-.516-.684.418.484 1.004.409 1.349.317.136.13.307.235.542.281-.086.171-.601.599-1.203.428.086.085.172.17.43.256-.086.085-1.204.598-2.579-.256-.172.256-.601.769-1.547 1.196.516.684.946 2.051.86 3.248-.086.769-.344 1.538-1.29 1.88-.14.347-.393.864-.944 1.183a2.697 2.697 0 0 1-.517-.5c.86-.17 1.204-.854 1.376-1.11-.086.085-.43.17-.516.17.344-.598.43-1.196.43-1.623 0-.599-.172-1.197-.43-1.624-.774.427-.602 2.393-.602 2.393a4.923 4.923 0 0 1-.367-.408c-.11-.905.232-1.913.883-2.156.945 1.025.773 2.564.43 3.077 2.578-.77.773-4.615.172-5.043.515-.17 1.03-.342 1.203-.512-1.203.085-1.891-.513-2.407-1.282-.515-.684-1.117-.855-1.46-.684l.02-.007a39.799 39.799 0 0 0-.084-.342c.658-.041 1.38.312 1.868 1.204.258.512.86 1.025 1.977 1.025 0-.513-.43-.94-.86-1.367-.515-.513-1.203-1.197-1.289-2.137-.172.342-.344.684-.344 1.026v.342l-.343-.171c-.43-.171-.946-.599-1.376-1.026l.08.078a13.076 13.076 0 0 0-.08-.249c-.052-.21-.109-.426-.166-.646.44.575 1.14 1.256 1.542 1.415.086-.512.43-1.367.945-1.623Zm6.592 7.7c-.218.354.046 1.14.112 1.53.172 1.11-.172 1.709-.688 2.05.086-.256.602-1.025 0-1.538l.088.088c-.045-.462-.174-1.129-.174-1.37-.043-.47.28-.726.623-.758Zm1.143 2.128a.741.741 0 0 1 .689-.304c-.343.323-.33 1.16-.26 1.586-.283 0-.52-.138-.694-.363.01-.297.063-.668.265-.92Zm-9.46-6.619c1.025.633 2.42 2.207 2.67 3.457-.515-1.453-1.89-2.393-2.234-2.65a.096.096 0 0 1-.051-.013l-.07-.059-.051-.013c.258.598.258 1.453.086 2.307-.171.682-.04 1.514.22 2.171-.57-1.07-.457-2.02-.392-2.342.172-.683.172-1.709-.086-2.222 0 .684-.086 1.282-.43 1.966l-.172-.171a4.877 4.877 0 0 0 .516-2.137v-.153Zm13.414 2.944c.09.114.202.235.333.354-.161.177-.16.591-.075.842a2.003 2.003 0 0 1-.542-.356c-.031-.361.064-.694.284-.84Zm1.453-1.356c-.058.246.045.538.094.587.43 1.025 1.805 1.452 2.836.854-.043.212-.466.761-1.166 1.02-2.06-.12-2.681-1.889-2.1-2.302a.58.58 0 0 1 .302-.155Zm-5.32-.012c-.259 0-.43.257-.345.428.086.512 1.204 1.11 1.72 1.11-.173-.94-1.204-1.538-1.376-1.538Zm2.523-2.2c.039.102.168.182.398.15.079-.014.164-.026.256-.037.364.06.782.084 1.097-.013.99.107 2.06.607 2.343 2.186-.258-.342-.516-.427-.774-.427a.896.896 0 0 0-.114.007c-.408-.586-1.372-1.154-2.894-.948-.601.086-.773-.256-.773-.427 0-.296.165-.469.437-.49ZM139.6 10.61c.43.513.43 1.026.344 1.368.258-.342.946-.342 1.29-.171-.867.47-.795 1.585-.116 1.9.018.237.093.501.201.664.086.085 0 .17-.086.17-1.633.086-1.46-1.88-.945-2.136-.645-.16-.911.731-1.509 1.125l-.083.047.069-.04a1.538 1.538 0 0 0-.626-.277c1.375-.608 1.392-1.485 1.138-2.152.136-.125.212-.275.323-.498Zm2.579.684c-.086-1.367 2.492-1.453 1.89.427.277-.03.619.157.976.349l.215.113c.578.295 1.167.49 1.56-.29.29.814.119 1.306-.375 1.506.07-.139.088-.324.031-.567-.86 1.026-2.234-.769-3.094-.256.172-.171.516-1.026-.086-1.368-.135-.134-.64-.215-.935.087a.575.575 0 0 0-.182-.001Zm.31.62.033.066c.135.341-.04.767-.343.767-.577 0-.851.18-.975.44-.026-.547.163-1.21 1.06-1.21a.398.398 0 0 0 .225-.062Zm-6.584-5.748c.172.171.515.94.43 1.624.773-.94 1.547-.598 2.492-1.11-.258.426-.86.426-1.461.683-.344.17-.43.342-.946.854-.257.257-.601.342-1.03.513-.43.086-.774.427-.86.77.515.17 1.031.427 1.46.854l-.063-.061c-.576-.492-1.3-.623-1.827-.623.516.257.602.427 1.031.855.344.256.688.598 1.118.854.806.401 1.664.384 2.288.154-.693.395-1.825.59-2.804.017-1.375-.769-1.977-2.307-3.782-2.05 0-.257 0-1.026-.515-1.197-.086.17-.258.598-.602.854l.072-.063-.072-.364-.006-.177c-.02-.302-.08-.635-.08-.848h.258c0 .256 0 .598.086.94.258-.171.601-.599.515-1.026.43.257 1.032.684 1.032 1.538h.344c.257-.341.773-1.281 0-1.965.43 0 .773.513.859.598.222.295.636.018.526-.338a.59.59 0 0 1 .076.253c0 .256-.344.769-.946.427.086.256-.086.769-.258 1.11.258.086.602.086.946.172.172-.427.601-.855 1.203-1.026.774-.256.86-1.538.516-2.222Zm.172-2.05c.773-5.128 6.102-5.043 7.907-2.052 1.547 2.137-1.032 4.7 2.32 4.871-.172.684-1.117 1.197-2.492.513-.43.342-.43 1.539.43 1.71.773.085.859-.599.859-.77.172 0 .945.513.945 1.453.172.171 1.376.94 2.15.256 0 .171-.946 1.111-2.235.684-.086.257-.602.684-.86.855.086-.257.516-1.624-.688-1.88-.602-.129-1.356-.429-1.947-.986.07.054.147.097.229.131-1.891-2.136 1.03-7.264-1.548-8.119-3.18-1.11-4.813 1.624-5.07 3.504.172 0 .343 0 .515.257.172-1.282 1.032-2.564 2.32-2.564-1.03.085-1.546 1.025-1.632 1.282 1.117-.684 1.977.683 1.977 1.538.343-.256.773-1.111.343-1.71.172 0 .43-.085.688.086.086-.342-.258-1.367-.86-1.538 2.493-.257 2.75 2.906.946 3.846v.256c.172.085.773.256 1.031.256.01.059.021.137.034.229-.17-.06-.656-.078-.807-.229-.086.342-.516.77-.774.855.086.598.516.427.774.77.43.597.172.854.945 1.367-.515.341-1.89.085-2.234-.171.257.427.343.94.172 1.367-.086-.256-.602-.427-.946-.513-.602-.085-1.547.171-1.977.855l-.172.256-.257-.256a2.319 2.319 0 0 0-.171-.175c.688-1.107 2.234-1.363 3.007-.594 0-.684-.43-1.026-.774-1.197 1.118-.085 1.29.513 2.493.428-.602-.513-.344-.77-.688-1.111-.172-.171-.86-.257-.86-1.111.946-.513 1.376-1.624.43-2.137l-.43.427c-.257.855-1.288.855-1.288.171-.86.428-1.204-.513-1.462-.683-.257-.086-1.117.085-1.547-.684-.343.513-.343 1.367-.086 1.88.086.342 0 .77-.859.598-.055.327.17.654.34.936-.854-.853-.511-1.535-.168-1.961 0 .256.086.683.344.598.172-.086.172-.513.086-.77-.086-.427-.086-1.367.601-1.965 0 .257.344.94.946.94Zm-5.04 5.56c.533.047 1.393.41 2.032 1.362-.344-.342-1.118-.684-1.977-.855l.076.016-.039-.153Zm11.228-8.381c.436.904.365 1.991.241 3.094l-.07.602c-.15 1.303-.257 2.585.43 3.568-.086-.598 0-1.367.516-1.709.344.513 1.461.855 2.149.427-3.61-.512.258-3.93-3.266-5.982Zm-3.352 3.59c.086-1.368-1.461-2.137-1.89-1.026-.087.256-.087.427-.087.684.086.598.516.94 1.031.427-.171.769.946.684.946-.086Zm1.633-2.479c.086.256.086.94-.086.94s-.344-.17-.516-.17c.172.512-.086 1.025-.258 1.281.172.086.516.427.602.598.516.086 1.719-2.222.258-2.649Z" fill="#4E473F" fill-rule="nonzero" />
        <path d="M134.96 12.149c.085.085.171.341.257.512.516.086 1.72.77 2.149 1.197-.344-.598-1.547-1.624-2.407-1.71M137.452 15.652c2.32 1.624.687 3.333.172 3.846-.344.342-1.29 1.026-1.375 1.368.515-.513 3.094-1.88 2.836-3.76 1.117.427 4.813 1.367 4.813 5.81.43-5.554-4.47-5.469-5.5-6.836 4.039-.684 4.726-2.82 7.734.513-2.836-4.53-4.985-.599-8.68-.94" fill="#4E473F" fill-rule="nonzero" />
        <path d="M126.193 20.61c-2.149 0-4.126-.257-5.329-.77-.086 0-.086-.085-.086-.085l-.43 1.623c0 .086 0 .086.086.171 1.376.513 3.524.855 5.845.855l-.086-1.795Z" stroke="#4E473F" stroke-width=".527" />
        <path d="m120.52 20.524.258-.77c0-.085.086-.085.172-.085s.43-.085 1.031-.085c-.43-.171-1.031-.257-1.633-.257-.257 0-.515 0-.687.086l-.344 1.196c.258-.085.516-.085.86-.085h.343Zm5.415.085c-1.977-.085-3.782-.342-4.985-.769-.086 0-.086-.085-.086-.085l-.43 1.623c0 .086 0 .086.086.171 1.29.428 3.266.77 5.415.855v-1.795Z" stroke="#4E473F" stroke-width=".527" />
        <path d="M113.988 35.992c-.086.342-.257.598-.687 1.026-.43.512.172 1.709-.172 2.478.26-.446.656-.75 1.075-1.025l.23-.147.115-.073.229-.146c.197-.127.387-.26.558-.41-.712.994-1.825 1.611-2.035 1.716-.602.256-.688.769-.258 1.025.258.171 1.117.342 1.29.427.257.086.429.342.257.684-.086.171-.688.598-.945.684-.172.085-.086.342.086.513-.172.256-1.032.17-1.204-.257-.086-.342 0-.94.946-1.196.157 0 .026-.36-.328-.42l-.102-.008h-1.29c-.429 0-.687-.598-.343-.94.172-.256.43-.256.773-.94.516-.94.086-1.453.344-1.965.258-.342.516-.684.688-.94.157-.392.026-.64-.195-.679l-.063-.005c.602-.342 1.117.17 1.031.598Zm-2.148-1.965c-.258.341-.602.512-.602 1.282 0 .484.615 1.733-.045 2.807-.273.122-.598.184-.986.184 1.46-1.453.086-2.735.515-3.846.172-.427.516-.684.602-.94.086-.257-.086-.427-.344-.427l.075.005a1.38 1.38 0 0 1 .011-.005c.688-.342 1.117.341.774.94Zm4.125-29.399c1.547.256 2.75-1.196 1.977-2.222 1.375.598.945 2.82.602 3.162.171 0 .343-.17.515-.342.344 1.282-.773 1.795-.773 2.564.258-.513.86-.427 1.031.086-.602.427-.344 1.538.602 1.452.43-.085.687-.341.687-.854 0-.342-.344-.684-.945-.684-.172-.855.516-1.11.773-1.11-.172-1.112.688-1.625 1.118-1.625-.247.9-.179 1.486 1.03 2.059l.173.078v.684c0 .47-.108 1.082-.267 1.756l-.071.29.08-2.474-.129-.046c-.727-.278-1.408-.865-1.246-1.834-.516.171-.688.684-.516 1.453-.86-.086-.86.513-.773.513 1.375.085 1.375 2.136-.086 2.136-.482 0-.963-.372-1.025-.908l-.007-.115-.024.162c-.037.39.057.83.282 1.203-.258.085-1.46.342-2.578-.513-.258.513.344 1.282.172 1.88-.516-.683-1.72-.512-2.063-.94 0 .428.086 1.71 1.117 2.393-.945.77-2.664.428-3.438-.17.43 2.307 2.665 2.392 3.868 1.452.172.257.172.513.172.855 1.117-.428 1.633-1.453 1.633-2.393.43 0 .602.256.688.513.515-2.308 2.75-2.735 3.437-2.82-.9-.652-.943-2.388-.87-2.921l.01-.069-.004.184c.01 1.234.877 2.36 1.243 2.604l.019.01c-.064.251-.133.507-.204.766-.703-.105-2.667-.225-3.46 2.93 0-.257-.343-.684-.515-.684-.086.854-.516 1.623-1.891 2.222 0 .341-.172.854-.602 1.11-.172.086-.343.257-.515.342-.313.156-.625 1.441-.68 2.894l-.006.219-.002.216-.03-.209c-.121-1.013-.046-2.285.226-2.84l.062-.109-.206.104c-.873.444-2.974 1.606-3.92 3.486.86-2.393 3.266-3.59 4.298-4.017-1.375-.342-2.493-1.282-5.243-.77 2.75-.768 4.297.257 5.07.428.603.086.774 0 .86-.085.516-.428.344-1.282.258-1.539-.86.599-2.492.684-3.352-.512-.773 0-1.203-.599-1.289-1.111-.172.427-.945.683-1.375-.171-.086.17 0 .683.086.854-1.633-.598-1.375 1.966-3.266 1.197.086.256.43.342.86.256.343 0 .773 0 .945.428.086.341 0 .683-.172.769-.774.512-1.29 0-1.805 0-.945 0-1.203 1.623-1.805 1.965 2.235.171 0 2.479-1.29.94.43 2.222 2.837 1.539 3.525-.512.172.598.172 1.025 0 1.282.258-.171.86-.428 1.203-1.111.172-.428.602-.171.516.085.43.17 1.203-1.367 1.633-1.88-.344.256-1.891 1.11-2.32.598.687 0 1.202-.427 1.546-.598.946-.598 1.977-.684 2.32-.257.43.513.087 1.282-.515 1.539-.516.256-3.352 1.88-3.524 3.418.172-.17.516-.17.688-.085.086.085.172.256-.086.598-1.032 1.111-.258 3.247-.43 3.931.382-.221.575-.748.729-1.318l.045-.173.086-.346c.199-.803.407-1.54 1.03-1.496 0-.17.173-.598.345-.769.172-.085.687-.085.773.171.086.342.172 1.025.86 1.111-.086-.77-.258-2.051.43-2.65-.344-.512-.258-1.709.601-1.709.688 0 .688.599.774.855.086.94-.344 1.71-.774 2.222 0 .598.258.855.43 1.111-.086-.513.344-1.88.773-1.795.43 0 .516 1.111.344 1.539.344-.257.774-1.111.86-1.624.515.342.859 1.624.43 2.478 1.03-.342 2.062-1.623 2.406-2.564-1.29-.769-1.203-2.563-1.118-2.82-.257.342-1.46.513-1.718.342.15-.243.243-.519.32-.8l.064-.243.03-.12.064-.24c.221-.79.564-1.47 2.014-1.417-.43 0-.774-.427-.945-.684.343.086 1.547-.085 2.234-.684.602-.598 1.118-1.538 2.665-1.538l-.18.008c-.042.149-.08.29-.113.422-.802.006-1.182.277-1.562.644l-.095.094-.39.39-.239.237c-.43.342-.945.598-1.633.684.172.256.516.341.86.341-.172.342-.43.428-.688.342-1.313 0-1.529.545-1.695 1.412l-.024.127-.05.178-.07.326c-.014.056-.03.115-.052.18.344.085 1.29-.172 1.461-.599-.172 1.196.086 2.137.516 2.735.258.342.602.598 1.031.683-.257-.512-.343-.94-.343-1.367 0-.456.067-.912.324-1.307l.105-.146.258-.256.258.256.062.051c.303.272.454.793.454 1.915.43-.684.43-1.538.43-2.051 0-.428-.258-1.88 0-2.991-.344.256-1.72 1.196-2.235 2.649.165-1.561 1.92-3.36 2.895-3.8l.113-.046.276-.551c-.043.176-.078.333-.104.466-.086.256-.086.512-.086.769 0 .598.131 1.262.395 1.876l.12.26-.257.086c-.344-.684-.43-2.65-.602-2.051-.773 1.453.516 4.102-1.203 5.726.258-1.282-.086-1.795-.516-2.137-.773 1.026-.172 2.735.086 3.077-.344 0-.602-.086-.86-.171-.515 1.282-1.804 2.65-3.093 2.82.43-.684.515-1.624.086-2.222-.086.513-.946 1.538-1.376 1.71.172-.343.344-1.71-.086-1.71-.343 0-.515 1.196-.515 1.71-.688-.532-.832-1.402-.856-1.589l-.004-.035c.774-.599 1.118-2.564.344-2.65-.43-.085-.602.77-.43 1.368-.773.427-.515 2.136-.258 2.82-1.117.17-1.46-.513-1.547-1.026-.086-.427-.515-.085-.515.428 0 .512.172.94.601 1.281.86.684.688 1.966-.172 2.222.172-.17.258-.769 0-1.196-.171-.17-.515-.342-.773.17-.172.257-.258.941.344 1.54.129 0 .252-.006.373-.014l.715-.059.373-.013c.43-.086 1.977 0 2.664 1.282a.885.885 0 0 0-.183.069l.011.016c-1.375-1.795-3.867-.17-4.727-1.11-1.117 3.076 5.587 4.187 4.813 9.143.086-5.042-6.36-5.64-5.414-9.486-.172-.085-.43-.427-.43-.427-.946 1.367 1.461 3.077-1.29 5.384.602.086 1.548-.342 1.892-.513-.172.428-1.633.855-1.891 1.453.258 0 .515.086.687.342-1.633 1.71-.344 4.871 1.375 4.188.179-.071.312-.157.426-.251-.285.313-.737.546-1.371.507-1.117-.086-2.664-1.966-1.203-4.444-.172-.17-.602-.17-.774 0 .172-.342.516-.94.946-1.111-.344.085-.86.085-1.032-.085 1.461-1.026 1.805-1.88 1.805-2.65 0-.854-.516-1.538-.43-2.393-.086.086-.257.086-.43.086.259-.171.43-1.026.43-1.539 0-.769-.601-2.05.258-3.418-.172 0-.43.256-.515.427 0-2.99 3.867-3.845 4.125-4.87.086-.343-.258-.77-.86-.428-.171.17-1.117 1.453-1.289 1.709-.172.256-.687.513-1.031.256-.086.428-1.633 1.282-1.805 1.282.172-.427.344-.769.258-1.025-1.719 2.735-4.04.94-3.524-.684 1.117 1.88 3.524-.427.86-.342.86-.342 1.117-1.282 1.375-1.709.601-.94 1.289-.855 1.719-.684.515.171 1.031.171 1.031-.342 0-.341-.344-.512-.688-.427-.945.086-1.804-.598-1.03-1.624-.173 1.026.945 1.282 1.46.599.344-.428.774-1.282 1.72-1.026-.087-.256.085-.94.343-1.025.086.17.172.427.344.598.258.17.601.256.773-.171 0-.086.086-.342.344-.427 0 .598.258 1.538 1.031 1.538a3.29 3.29 0 0 1-.343-1.453c1.203.94 2.664.855 3.18.427-.688-.512-.946-1.282-.946-1.709-.687.171-1.89.086-2.148-.17.859 0 1.203-.599 1.203-1.026-.43.341-1.032.512-1.72.427-.429-.086-.687 0-.859.085 0-.512.602-2.05 1.633-2.05-.257-.513-.172-1.453.086-1.71-.773-.342-1.46-1.025-.945-2.222-.258 0-.602-.256-.602-.513-.601.855-.43 2.308.774 2.735-.086.342-.344.94-1.032.94.258 2.308-1.375 3.162-1.89 3.419-1.118.683-.344 1.709.257 1.794-.687.428-1.633.257-1.976-.598-.43.427-1.375.684-2.32 0 1.976.427 1.46-1.453 2.234-1.71-.43-.085-.688-.341-.774-.854 1.118 1.026 3.094.086 2.665-.94-.344.086-2.665.513-3.095-.769 1.805-.41 1.847-1.559 1.832-2.763l-.004-.301c-.007-.705.016-1.41.407-1.978.602-.77 1.633-1.111 2.664-.684 1.204-.854 4.298-1.025 5.33 2.564Zm-6.102 31.364c.068.202.029.51-.127.803-.85.434-1.5.188-1.833-.278.522.412 1.62.236 1.96-.525Zm.086-3.076c.172.94.086 2.307-.86 2.905.157.031.336.04.509.017-.429.203-1.005.199-1.368-.102.258-.171.344-.257.43-.427.172-.171.172-.77-.43-.599l.014-.003c.049-.03.102-.057.158-.082.43-.171.945-.086.945.513.43-.342.602-1.88.602-2.222Zm5.93 1.965c.281.07.505.14.671.35-.054.202-.133.4-.241.59-.12-.178-.197-.273-.291-.344a5.071 5.071 0 0 0-.139-.596Zm-.074-3.162c.338.008.59.347.676.77-.298-.37-.66-.356-.863-.29.042-.132.088-.255.138-.372l.049-.108Zm2.567-2.307-.172.94c-1.126 0-1.762.447-2.104.864.384-.541.884-.844 1.416-.95-.687-.512-1.89-.683-2.492-.342 0-.205 0-.355.088-.495l-.002.068c.687-.17 1.976-.085 2.664.77.258 0 .43-.513.602-.855Zm-3.008-.599c-.14.21-.224.362-.25.551-.575.249-2.715.515-3.532-.38.172.086.86.342 1.719.342.03-.06.06-.117.09-.172.743-.006 1.477-.094 1.973-.34Zm3.18-25.125-.054.164c-.54 1.454-2.078.649-3.16 2.687l-.114.23-.111.25-.003-.095c-.026-.396-.19-1.2-.426-1.356-.516.342-.774 1.453-.258 2.308-.516 0-1.375-.428-1.633-1.026-.086.17-.344.94 0 1.71-1.117-.257-1.461.854-1.547 1.281.688-.17 1.117.342 2.578-.513.086.684-.43 1.282-.601 1.453.172.086.773 0 1.117-.085-.086-.428-.086-.94 0-1.282.516 1.11 1.633 1.11 1.977 1.282 0 0-.172-.428-.258-.94 0-.137 0-.274.044-.367l.042-.06.172-.428.344.256.148.12a2.218 2.218 0 0 0 1.743.393c-.344-1.367.43-1.88.43-1.88-.345-.256-.602.086-.688.342-.688-.77.601-1.88.515-2.222-.086.085-.601.342-.86.256.173-.256.86-1.709.603-2.478Zm-9.025.427c-.258 1.282.688 2.906.086 3.846.172-1.88-.43-2.393-.344-3.675 0-.17.258-1.367 1.118-1.88-1.032-.342-1.72.17-2.063.598-.326.46-.377 1.039-.384 1.645l-.002.204v.472c-.01 1.104-.153 2.188-1.763 2.721.516.684 2.493.513 2.922.171.43.513.258 1.368-.343 1.88 2.062-.17 1.719-2.563 1.547-2.99.515.085.86-.172.945-.428-1.203-.342-1.977-3.59.774-4.188-.774.342-.86.855-.774 1.197.086.427.43.513.688.513-.172.085-.946 1.623.515 1.965-.258-.769-.086-1.794.86-2.136 1.203-.428 1.89 1.196 1.805 1.965.515-1.196 0-2.99-1.032-3.589-1.547-.855-4.125-.342-4.555 1.71Zm4.297.171c-.687 0-1.03 1.026-.945 1.453 0 .513.344 1.196.945 1.624-.085-.77.086-1.368.43-1.71.43-.427.43-1.367-.43-1.367Z" fill="#4E473F" fill-rule="nonzero" />
        <path d="M105.652 32.745c.171 0 .773.256.257.598-.172.085-.687.427-.773.513 0 .085-.086.256 0 .342-.258.085-.688-.171-.602-.428.258-.513 1.203-.683 1.118-1.025M109.433 4.628c-1.031.427.344 2.307-1.46 2.906 1.718-.94-.087-2.308 1.46-3.333v.427M115.965 8.388c-.086-.769.43-1.88 1.203-2.734-1.289.94-1.547 2.05-1.633 3.162.086-.171.344-.342.43-.428M115.793 19.926c-.344.854.774 1.452.516 2.307.687-1.367-.344-1.795-.516-2.307M119.575 10.354c-2.235.598-2.493 2.564-4.297 3.333 2.062-.513 2.406-2.65 4.297-3.333M110.465 30.608c-.172.94-1.118 2.308-1.891 2.906 1.117-1.368 1.547-2.393 1.547-3.248M110.293 30.18c1.375.855 3.094.685 4.04.6-.43.17-1.978.683-3.267.17M112.785 32.574c.774 0 1.89.683 2.407 1.282-.344-.599-1.29-1.453-2.665-1.624M126.966.184l.86 1.538h1.805l-.946 1.795.946 1.538h-1.805l-.946 1.624-.945-1.624h-2.063l.44-.758.174-.301c.201-.348.382-.665.418-.735a24.954 24.954 0 0 1-.375-.6l-.163-.266-.408-.673h1.805c.086-.256.86-1.538.86-1.538s.085.085.171.256l.172-.256Zm-.343.598-.774 1.197h-1.461l.773 1.282-.773 1.196h1.461l.774 1.282.687-1.282h1.461l-.687-1.196.687-1.282h-1.46l-.688-1.197Z" fill="#4E473F" fill-rule="nonzero" />
        <path d="M127.826 21.891s-.086-.17 0-.427l.258-1.368c2.062-.427 3.18-2.222 3.61-2.99.343-.77.515-1.539.515-2.308 0-.257 0-.513-.086-.77a23.136 23.136 0 0 0-.516-1.965c-.43-1.538-.859-3.247-.859-4.187V7.79c0-.342.172-.77.344-1.11l.258-.428-.516-.086c-.172 0-.344-.085-.602-.085-.515-.086-1.89-.257-3.695-.257s-3.18.171-3.696.257c-.258.085-.43.085-.602.085l-.43.086.258.427c.172.342.344.77.344 1.111v.086c0 .94-.516 2.649-.86 4.187-.257.77-.43 1.538-.515 1.966-.086.256-.086.512-.086.769 0 .769.172 1.538.516 2.307.344.855 1.375 2.479 3.61 3.077l.257 1.282c.086.256 0 .342 0 .427-.258.257-1.547 1.026-4.899.77l1.547.427c1.633.085 3.18-.513 3.61-.855.172-.171.172-.513.172-.77l-.258-1.537c-1.977-.428-3.094-1.795-3.61-2.906a4.877 4.877 0 0 1-.515-2.137c0-.256 0-.512.086-.769.086-.427.258-1.11.515-1.88.43-1.538.946-3.247.946-4.273V7.79c0-.513-.172-.94-.43-1.282.086 0 .258-.085.516-.085.515-.086 1.89-.257 3.61-.257 1.718 0 3.094.171 3.61.257.257.085.429.085.515.085-.172.342-.344.77-.43 1.282v.171c0 .94.516 2.735.946 4.273.257.77.43 1.538.515 1.88 0 .257.086.513.086.77 0 .683-.172 1.452-.515 2.136-.688 1.453-2.407 3.333-5.415 2.991.602.17 1.203.256 1.719.17l-.172 1.197c0 .257-.086.599.172.77.43.341 1.977.94 3.61.854l1.547-.427c-3.438.342-4.727-.513-4.985-.684" fill="#4E473F" fill-rule="nonzero" />
        <path d="M126.623 5.739c1.804 0 3.18.17 3.695.256.206 0 .358.055.498.077l.104.009.516.085-.258.428c-.148.293-.295.648-.334.96l-.01.15v.086c0 .94.43 2.65.86 4.188.257.854.43 1.538.515 1.965.086.257.086.513.086.77 0 .769-.172 1.538-.516 2.307-.41.736-1.45 2.41-3.346 2.928l-.263.063-.258 1.367c-.086.257 0 .428 0 .428.25.248 1.467 1.058 4.59.797l.309-.028-1.547.427h-9.197l-1.547-.427c3.352.256 4.641-.513 4.9-.77 0-.073.062-.146.026-.327l-.027-.1-.258-1.282c-2.234-.598-3.266-2.222-3.61-3.076a5.614 5.614 0 0 1-.515-2.308c0-.256 0-.512.086-.769.086-.427.258-1.196.516-1.965.32-1.436.791-3.02.852-3.99l.007-.198v-.085c0-.293-.126-.65-.27-.96l-.074-.151-.258-.428.43-.085c.172 0 .344 0 .602-.086.515-.085 1.89-.256 3.696-.256Zm-4.212 7.606c-.344 1.282-.258 2.82.774 4.102-.086-.342-.946-2.05-.344-3.931.086-.513-.344-.513-.43-.171Zm4.212-7.264c-1.72 0-3.095.17-3.61.256-.258.086-.43.086-.516.086.172.342.344.769.43 1.282v.17c0 .94-.516 2.735-.946 4.274-.086.17-.086.341-.171.512 1.289-.256 3.008-.427 4.813-.427 1.804 0 3.437.17 4.813.427-.086-.17-.086-.342-.172-.512-.43-1.539-.946-3.248-.946-4.273v-.171c0-.513.172-.94.43-1.282-.086 0-.258-.086-.516-.086-.515-.085-1.89-.256-3.61-.256Z" fill="#4E473F" fill-rule="nonzero" opacity=".5" />
        <path d="M130.834 14.285c-.172 2.65-2.493 4.871-4.641 4.871 2.75 0 3.867-1.794 4.211-2.563.258-.599.43-1.197.43-1.795a.542.542 0 0 0 0-.513" fill="#4E473F" fill-rule="nonzero" opacity=".5" />
        <path d="M126.623 12.405c1.89 0 3.695.17 5.07.513v-.171c-1.375-.342-3.094-.513-5.07-.513-1.891 0-3.696.17-5.071.513v.17c1.375-.256 3.094-.512 5.07-.512M126.623 7.192c-1.462 0-2.837.085-3.954.342v.17c1.203-.17 2.492-.341 3.954-.341 1.46 0 2.836.085 3.953.342v-.171c-1.117-.171-2.492-.342-3.953-.342M136.334 21.891l.602 1.367c-.687.94-1.031 2.222-1.031 3.932 0 .94.086 2.136.344 3.59.257 1.366.343 2.477.343 3.418 0 2.563-.773 4.273-2.406 5.64-1.203.957-2.332 1.244-3.455 1.417l-.24.036-.215.04c-1.198.224-2.125.43-2.842 1.476l-.124.193h-.773c-.946-1.795-2.321-2.051-3.782-2.307-1.117-.171-2.235-.342-3.352-1.282-1.633-1.368-2.149-3.077-2.149-5.213 0-1.026.172-2.137.344-3.333.258-1.453.344-2.735.344-3.76 0-1.938-.383-3.341-1.222-4.355l-.153-.175.009-.046c.04-.147.205-.537.242-.621l.007-.017.574.132c2.71.596 5.849.894 9.138.894 3.61 0 6.961-.342 9.797-1.026Zm.086.77c-.859 1.025-1.203 2.478-1.203 4.358 0 1.025.086 2.307.344 3.76.172 1.367.344 2.393.344 3.333 0 2.393-.688 3.931-2.149 5.213-1.043.878-2.086 1.085-3.128 1.248l-.224.034c-1.46.256-2.75.427-3.696 2.137h.344c.817-1.38 1.866-1.604 3.148-1.843l.204-.038c1.203-.17 2.32-.427 3.524-1.367 1.547-1.282 2.32-2.991 2.32-5.47 0-.94-.085-1.965-.343-3.332a19.273 19.273 0 0 1-.344-3.59c0-1.794.344-3.076 1.031-4.102l-.172-.342Zm-9.883 13.075-.688 1.282h-1.461l.687 1.196-.687 1.282h1.461l.688 1.197.773-1.197h1.461l-.773-1.282.773-1.196h-1.46l-.774-1.282Zm5.156-5.128-.687 1.282h-1.461l.773 1.197-.773 1.281h1.46l.688 1.282.774-1.282h1.461l-.774-1.281.774-1.197h-1.461l-.774-1.282Zm-10.313 0-.688 1.282h-1.46l.687 1.197-.688 1.281h1.461l.688 1.282.773-1.282h1.375l-.687-1.281.687-1.197h-1.375l-.773-1.282Zm14.783-8.46c-2.75.598-6.103.94-9.626.94-3.524 0-6.876-.342-9.626-.94 0 .085-.172.341-.172.427.945 1.11 1.289 2.564 1.289 4.615 0 .512 0 1.11-.086 1.794h17.19c-.087-.683-.087-1.282-.087-1.794 0-2.051.43-3.504 1.29-4.615 0-.086-.172-.342-.172-.427Z" fill="#4E473F" fill-rule="nonzero" />
        <path d="M126.537 23.088c-3.524 0-6.876-.342-9.626-.94 0 .085-.172.341-.172.427.945 1.11 1.289 2.564 1.289 4.615 0 .512 0 1.11-.086 1.794h17.19c-.087-.683-.087-1.282-.087-1.794 0-2.051.43-3.504 1.29-4.615 0-.086-.172-.342-.172-.427-2.75.598-6.103.94-9.626.94Z" stroke="#4E473F" stroke-width=".527" />
        <g fill="#4E473F" fill-rule="nonzero">
            <g opacity=".5">
                <path d="M15.194 96.511c-2.115 0-3.42 1.539-3.42 3.294 0 1.854 1.251 3.33 3.366 3.33.432 0 .819-.054 1.17-.162l1.962 1.359.72-.873-1.548-1.08c.756-.621 1.143-1.566 1.143-2.583 0-1.737-1.233-3.285-3.393-3.285Zm-.045 1.053c1.386 0 2.025 1.062 2.025 2.25 0 1.152-.594 2.259-1.962 2.259-1.35 0-2.034-1.035-2.034-2.286 0-1.161.657-2.223 1.971-2.223ZM22.82 96.646v3.672c0 1.98 1.143 2.817 2.925 2.817 1.836 0 2.916-.891 2.916-2.862v-3.627h-1.332v3.6c0 1.413-.603 1.827-1.539 1.827-.846 0-1.638-.378-1.638-1.827v-3.6H22.82ZM37.259 101.398l.675 1.602h1.449l-2.745-6.354h-1.683L32.336 103h1.377l.639-1.602h2.907Zm-2.547-1.08c.531-1.332.9-2.34 1.035-2.79h.009c.153.468.468 1.233 1.116 2.79h-2.16ZM43.265 103h4.797l.18-1.08h-3.654v-5.274h-1.323zM52.142 96.646V103h1.332v-6.354zM59.777 103h1.332v-5.283h2.295v-1.071h-5.931v1.071h2.304zM71.03 103v-2.304c0-.072.009-.108.045-.162l2.673-3.888h-1.467c-.657 1.026-1.548 2.34-1.863 2.916-.306-.576-1.188-1.89-1.854-2.916H66.98l2.637 3.843c.054.072.072.108.072.189V103h1.341ZM82.889 103h3.348c1.449 0 2.403-.666 2.403-1.881 0-.864-.612-1.314-1.215-1.494.495-.171.981-.603.981-1.359 0-.927-.684-1.62-2.151-1.62h-3.366V103Zm1.314-3.825v-1.512h1.782c.603 0 1.035.198 1.035.765 0 .459-.288.747-1.053.747h-1.764Zm0 1.008h1.818c.783 0 1.215.306 1.215.891 0 .72-.558.918-1.206.918h-1.827v-1.809ZM95.69 100.453c.99 0 1.26.279 1.26 1.017v.207c0 .63.009 1.044.108 1.323h1.368c-.081-.288-.072-.792-.072-1.251v-.297c0-1.134-.648-1.404-.963-1.512.675-.207 1.125-.711 1.125-1.512 0-1.107-.846-1.782-2.259-1.782h-3.33V103h1.323v-2.547h1.44Zm-1.44-2.79h1.719c.801 0 1.179.306 1.179.873 0 .603-.378.9-1.206.9H94.25v-1.773ZM107.87 99.148h-3.627v-1.422h3.825v-1.08h-5.157V103h5.202l.153-1.08h-4.023v-1.692h3.627zM115.154 103c.477-1.584 1.197-3.96 1.377-4.95h.009c.189.864.963 3.537 1.386 4.95h1.44l1.989-6.354h-1.341c-.405 1.44-1.152 4.005-1.341 5.094h-.009c-.162-.855-.981-3.69-1.395-5.094h-1.287c-.459 1.494-1.224 4.05-1.422 5.139h-.009c-.135-1.053-.882-3.645-1.287-5.139h-1.404l1.863 6.354h1.431ZM130.277 99.148h-3.627v-1.422h3.825v-1.08h-5.157V103h5.202l.153-1.08h-4.023v-1.692h3.627zM137.651 100.453c.99 0 1.26.279 1.26 1.017v.207c0 .63.009 1.044.108 1.323h1.368c-.081-.288-.072-.792-.072-1.251v-.297c0-1.134-.648-1.404-.963-1.512.675-.207 1.125-.711 1.125-1.512 0-1.107-.846-1.782-2.259-1.782h-3.33V103h1.323v-2.547h1.44Zm-1.44-2.79h1.719c.801 0 1.179.306 1.179.873 0 .603-.378.9-1.206.9h-1.692v-1.773ZM144.341 101.11c.198 1.152 1.089 2.016 3.015 2.016 2.061 0 2.907-.882 2.907-1.953 0-.909-.378-1.629-2.754-2.052-1.278-.225-1.539-.45-1.539-.873 0-.486.45-.738 1.242-.738 1.143 0 1.368.468 1.476.819h1.332c-.072-.702-.63-1.818-2.772-1.818-1.467 0-2.637.648-2.637 1.872 0 .855.423 1.53 2.538 1.89 1.431.243 1.746.54 1.746 1.035 0 .468-.351.828-1.422.828-1.116 0-1.593-.414-1.791-1.026h-1.341ZM159.566 101.11c.198 1.152 1.089 2.016 3.015 2.016 2.061 0 2.907-.882 2.907-1.953 0-.909-.378-1.629-2.754-2.052-1.278-.225-1.539-.45-1.539-.873 0-.486.45-.738 1.242-.738 1.143 0 1.368.468 1.476.819h1.332c-.072-.702-.63-1.818-2.772-1.818-1.467 0-2.637.648-2.637 1.872 0 .855.423 1.53 2.538 1.89 1.431.243 1.746.54 1.746 1.035 0 .468-.351.828-1.422.828-1.116 0-1.593-.414-1.791-1.026h-1.341ZM169.82 96.646V103h1.332v-6.354zM177.104 103v-2.205c0-1.125 0-2.025-.054-2.826h.018c.405.729 2.592 3.978 3.303 5.031h1.485v-6.354h-1.233v1.836c0 1.035-.009 2.169.054 2.889h-.018c-.387-.72-1.53-2.241-3.204-4.725h-1.575V103h1.224ZM191.318 101.029c-.279.657-.702 1.062-1.701 1.062-1.323 0-1.989-1.053-1.989-2.313 0-1.26.711-2.214 1.98-2.214 1.143 0 1.539.594 1.719 1.053h1.35c-.207-1.053-1.143-2.106-3.051-2.106-2.178 0-3.402 1.557-3.402 3.321 0 1.764 1.116 3.303 3.33 3.303 1.935 0 2.79-.999 3.114-2.106h-1.35ZM201.779 99.148h-3.627v-1.422h3.825v-1.08h-5.157V103h5.202l.153-1.08h-4.023v-1.692h3.627zM213.917 103v-6.048h-.936c-.27.297-.819.729-1.566.909v.936c.279-.018.936-.189 1.251-.369V103h1.251ZM220.715 103.126c1.287 0 2.538-.585 2.538-1.854 0-.765-.441-1.296-1.098-1.521.45-.18.828-.585.828-1.215 0-1.125-1.008-1.71-2.205-1.71-1.395 0-2.259.684-2.259 1.692 0 .585.315 1.035.792 1.287-.585.243-1.08.702-1.08 1.476 0 1.215 1.134 1.845 2.484 1.845Zm.027-.927c-.63 0-1.242-.306-1.242-.972 0-.522.306-.945 1.242-.945.909 0 1.233.441 1.233.972 0 .693-.621.945-1.233.945Zm.009-4.473c.576 0 .99.306.99.81 0 .477-.252.801-.963.801-.756 0-1.017-.378-1.017-.81 0-.549.45-.801.99-.801ZM226.811 96.952v1.017h3.312c-.954 1.098-2.088 3.186-2.421 5.031h1.386c.414-1.881 1.314-3.726 2.358-5.067v-.981h-4.635ZM237.875 103v-6.048h-.936c-.27.297-.819.729-1.566.909v.936c.279-.018.936-.189 1.251-.369V103h1.251Z" />
            </g>
            <path d="M9.154 62.268c-.657 0-1.237.029-1.74.087-.503.058-.89.145-1.16.26a1.5 1.5 0 0 0-.348.204c-.097.077-.174.203-.232.377-.058.174-.106.43-.145.768-.039.339-.068.793-.087 1.363-.02.57-.029 1.29-.029 2.16v3.19a255.653 255.653 0 0 0 .043 5.495c.01.494.03.852.059 1.074.029.223.072.411.13.566.155.464.474.788.957.971.483.184 1.276.276 2.378.276 1.315 0 2.508-.203 3.582-.61 1.073-.405 1.996-.976 2.769-1.71a7.43 7.43 0 0 0 1.784-2.654c.415-1.034.623-2.19.623-3.465 0-1.392-.246-2.678-.74-3.857-.493-1.18-1.203-2.137-2.131-2.871a7.089 7.089 0 0 0-2.421-1.233c-.9-.26-1.997-.391-3.292-.391Zm-6.09 6.38v-2.813c0-.812-.02-1.45-.058-1.914-.039-.464-.126-.817-.261-1.059a.921.921 0 0 0-.58-.464 6.238 6.238 0 0 0-1.015-.16c-.31 0-.464-.077-.464-.231v-.174c0-.194.077-.29.232-.29h1.421c1.508 0 3.538-.058 6.09-.174l1.479-.03c1.102 0 2.16.097 3.176.29 1.014.194 1.909.484 2.682.87a7.465 7.465 0 0 1 1.914 1.306 8.12 8.12 0 0 1 1.479 1.856c.406.696.72 1.445.943 2.247.222.803.333 1.629.333 2.48 0 .792-.097 1.56-.29 2.305a9.838 9.838 0 0 1-.826 2.132 8.967 8.967 0 0 1-1.32 1.87 8.64 8.64 0 0 1-1.74 1.465 10.91 10.91 0 0 1-3.219 1.377c-1.18.3-2.533.45-4.06.45h-.783c-.174 0-.42-.005-.74-.015l-1.319-.043a18.837 18.837 0 0 0-1.247-.058H3.093c-.174 0-.382.005-.623.014-.242.01-.547.024-.914.044h-.58c-.213 0-.334-.02-.363-.058-.029-.039-.043-.165-.043-.377 0-.116.024-.189.073-.218.048-.029.217-.063.507-.101.6-.097 1.025-.285 1.276-.566.251-.28.416-.74.493-1.377.039-.368.072-1.117.101-2.248.03-1.13.044-2.576.044-4.335v-2.001ZM34.121 61.485c.387.019.899.034 1.537.043.638.01 1.266.015 1.885.015H38.863c.183 0 .377-.005.58-.015.203-.01.468-.024.797-.043h.058c.213 0 .319.096.319.29 0 .154-.024.256-.072.304-.049.049-.218.092-.508.13-.425.078-.759.194-1 .349-.242.154-.426.483-.551.986-.126.502-.208 1.242-.247 2.218-.039.977-.068 2.335-.087 4.075-.02 1.353-.044 2.445-.072 3.277-.03.831-.092 1.513-.189 2.044-.097.532-.227.972-.392 1.32a6.461 6.461 0 0 1-.681 1.102c-1.353 1.817-3.49 2.726-6.409 2.726-2.475 0-4.321-.561-5.539-1.682a5.012 5.012 0 0 1-1.334-2.045c-.27-.783-.406-1.803-.406-3.06l.029-4.175c0-1.74-.01-3.084-.029-4.031-.02-.948-.087-1.648-.203-2.103-.116-.454-.305-.734-.566-.84-.26-.107-.633-.18-1.116-.218-.174-.02-.285-.044-.334-.073-.048-.029-.072-.101-.072-.217 0-.155.015-.256.044-.305.029-.048.091-.072.188-.072h.203c.174 0 .401.005.681.014a274.546 274.546 0 0 0 1.784.058c.29.01.522.015.696.015l3.712-.087c.155 0 .251.019.29.058.039.038.058.135.058.29 0 .077-.005.14-.015.188-.01.049-.048.087-.116.116a1.31 1.31 0 0 1-.319.073c-.145.019-.352.038-.623.058a4.009 4.009 0 0 0-.855.174 1.097 1.097 0 0 0-.537.391c-.135.184-.232.435-.29.754-.058.32-.106.74-.145 1.262-.039.792-.072 1.793-.101 3.001a172.783 172.783 0 0 0-.044 4.104c0 .715.02 1.334.058 1.856.039.522.097.98.174 1.377.077.397.184.745.319 1.044.135.3.31.585.522.856.89 1.102 2.359 1.653 4.408 1.653 1.953 0 3.46-.532 4.524-1.595.27-.271.493-.561.667-.87.174-.31.314-.672.42-1.088.107-.415.184-.904.233-1.464.048-.561.072-1.218.072-1.972a233.325 233.325 0 0 0-.044-4.829c-.01-.55-.028-1.03-.057-1.435a13.705 13.705 0 0 0-.131-1.16c-.077-.735-.29-1.262-.638-1.58-.348-.32-.928-.508-1.74-.566-.232-.02-.377-.044-.435-.073-.058-.029-.087-.12-.087-.275 0-.155.014-.252.043-.29.03-.039.112-.058.247-.058h.116ZM47.284 61.485c.135 0 .222.019.261.058.039.038.058.135.058.29 0 .212-.02.333-.058.362-.039.03-.155.053-.348.073-.619.019-1.04.096-1.262.232-.222.135-.333.367-.333.696 0 .406.237 1.3.71 2.682.474 1.383 1.252 3.388 2.335 6.018.251.638.464 1.184.638 1.638l.479 1.247c.145.377.275.745.391 1.102.116.358.251.759.406 1.204.116-.252.304-.677.566-1.276.26-.6.55-1.271.87-2.016.319-.744.647-1.508.986-2.29.338-.784.642-1.494.913-2.132a226.74 226.74 0 0 0 1.059-2.538c.28-.686.502-1.261.666-1.725.165-.464.28-.832.349-1.102.067-.271.101-.503.101-.696 0-.484-.3-.793-.899-.928a1.145 1.145 0 0 0-.174-.044 3.743 3.743 0 0 0-.232-.029c-.097-.01-.218-.02-.362-.029l-.595-.043c-.174-.02-.285-.044-.333-.073-.049-.029-.073-.111-.073-.246 0-.29.087-.435.261-.435h.232l1.015.029h3.205c.106 0 .232-.005.377-.015.145-.01.343-.014.594-.014h.145c.097 0 .164.029.203.087.039.058.058.174.058.348 0 .096-.015.154-.044.174-.029.019-.15.077-.362.174a2.18 2.18 0 0 0-.464.275c-.135.107-.285.285-.45.537-.164.251-.362.609-.594 1.073a107 107 0 0 0-.899 1.856 632.364 632.364 0 0 0-2.682 5.713 362.603 362.603 0 0 0-1.74 3.813 49.03 49.03 0 0 0-1.03 2.436 24.947 24.947 0 0 0-.551 1.58c-.039.155-.072.242-.102.262-.029.019-.13.048-.304.087-.213.038-.44.072-.681.101a6.499 6.499 0 0 1-.421.044c-.077 0-.126-.058-.145-.174-.058-.329-.15-.706-.276-1.131a33.7 33.7 0 0 0-.608-1.798c-.28-.774-.663-1.779-1.146-3.016-.483-1.238-1.102-2.833-1.856-4.785a136.974 136.974 0 0 0-1.435-3.567c-.378-.89-.697-1.576-.958-2.06-.26-.483-.497-.816-.71-1a1.924 1.924 0 0 0-.696-.391c-.116-.039-.174-.126-.174-.261 0-.174.02-.28.058-.32.039-.038.145-.057.319-.057h.087c.174 0 .367.005.58.014l.638.03c.213.009.41.019.594.028.184.01.324.015.421.015h1.349c.067 0 .154-.005.26-.015a53.6 53.6 0 0 0 .45-.043h.392c.183 0 .44-.01.768-.03h.203ZM72.604 73.085c0 .174-.116.26-.348.26-.155 0-.251-.023-.29-.072-.039-.048-.068-.179-.087-.391-.058-.677-.251-1.165-.58-1.465-.329-.3-.86-.488-1.595-.565a7.13 7.13 0 0 0-.551-.044 20.7 20.7 0 0 0-.885-.014c-.377 0-.845-.005-1.406-.015-.56-.01-1.257-.014-2.088-.014v4.205c0 1.179.02 2.02.058 2.523.02.309.058.55.116.725.058.174.189.304.391.391.203.087.508.14.914.16.406.019.957.029 1.653.029 2.165 0 3.625-.213 4.379-.638.367-.213.725-.566 1.073-1.059a6.583 6.583 0 0 0 .841-1.667c.039-.155.077-.252.116-.29a.197.197 0 0 1 .145-.058c.348 0 .522.096.522.29 0 .348-.232 1.43-.696 3.248-.097.348-.17.614-.218.797a2.896 2.896 0 0 1-.13.406c-.039.087-.077.136-.116.145a.773.773 0 0 1-.174.015h-.174c-.174-.02-.517-.039-1.03-.058-.512-.02-1.16-.034-1.943-.044-.783-.01-1.672-.02-2.668-.029-.995-.01-2.054-.014-3.175-.014h-.812c-.232 0-.493.005-.783.014-.29.01-.633.024-1.03.044-.396.019-.913.038-1.551.058h-.203c-.155 0-.256-.015-.305-.044-.048-.029-.072-.12-.072-.275 0-.232.087-.348.261-.348.715-.058 1.208-.155 1.479-.29.27-.136.454-.397.551-.783.039-.136.073-.387.102-.754.029-.368.053-.865.072-1.494.02-.628.034-1.406.044-2.334.01-.928.014-2.02.014-3.277 0-.677-.005-1.378-.014-2.103a1128.266 1128.266 0 0 0-.059-3.755 19.27 19.27 0 0 0-.043-1.102c-.039-.445-.16-.74-.362-.885-.204-.145-.614-.237-1.233-.275-.232-.02-.372-.049-.42-.087-.049-.039-.073-.136-.073-.29 0-.232.087-.348.261-.348h.232l.595.014c.357.01.758.02 1.203.03.445.009.88.014 1.305.014h2.059c.503 0 1.063-.005 1.682-.015l1.914-.029a724.27 724.27 0 0 0 3.291-.058c.416-.01.682-.014.798-.014h.464c.193 0 .29.087.29.26 0 .04-.005.097-.014.175-.01.077-.054.319-.131.725-.02.058-.039.198-.058.42-.02.223-.039.464-.058.725a21.24 21.24 0 0 0-.058 1.407c0 .406-.02.643-.058.71-.039.068-.164.102-.377.102-.155 0-.256-.02-.305-.058-.048-.039-.072-.136-.072-.29-.039-.658-.106-1.175-.203-1.552-.097-.377-.242-.652-.435-.826-.27-.252-.75-.43-1.436-.537-.686-.106-1.667-.16-2.943-.16-.251 0-.527.006-.827.015l-.87.03c-.28.009-.526.019-.739.028-.213.01-.367.024-.464.044-.213.038-.343.101-.392.188-.048.087-.082.305-.101.653V69.779H67.5c.657 0 1.165-.005 1.522-.015.358-.01.624-.024.798-.043.174-.02.358-.039.551-.058.29-.058.527-.121.71-.189.184-.067.334-.169.45-.304.116-.136.208-.314.275-.537.068-.222.121-.498.16-.826.02-.213.043-.339.073-.377.028-.039.12-.058.275-.058.155 0 .251.019.29.058.039.038.058.116.058.232 0 .096-.01.183-.029.26-.02.155-.034.358-.044.61l-.029.783-.029.812c-.01.27-.014.512-.014.725 0 .367.005.725.014 1.073.01.348.034.647.073.899v.26ZM89.787 79.755c-.02.154-.097.232-.232.232l-.406-.03c-.348-.038-.972-.072-1.87-.1-.9-.03-2.045-.044-3.437-.044h-1.189c-.445 0-.89.005-1.334.014l-1.305.03c-.425.009-.802.014-1.131.014h-.392c-.106 0-.372.01-.797.029-.27 0-.479.005-.624.014-.144.01-.26.015-.347.015h-.363c-.251 0-.377-.097-.377-.29 0-.155.02-.252.058-.29.039-.039.164-.068.377-.087.677-.078 1.15-.261 1.421-.551.27-.29.454-.812.551-1.566.039-.368.072-.793.101-1.276.03-.484.049-1.068.058-1.755.01-.686.02-1.484.03-2.392.01-.909.014-1.963.014-3.161 0-1.528-.015-2.712-.044-3.553-.029-.84-.106-1.464-.232-1.87-.125-.406-.319-.662-.58-.769-.26-.106-.623-.179-1.087-.217-.193-.02-.31-.044-.348-.073-.039-.029-.058-.12-.058-.275 0-.213.087-.32.261-.32h.188c.068 0 .174.006.32.015l.623.044c.56.019 1.005.034 1.334.043.329.01.686.015 1.073.015.174 0 .416-.005.725-.015l.957-.029.913-.029c.28-.01.47-.014.566-.014h.116c.174 0 .261.087.261.26 0 .175-.024.281-.073.32-.048.038-.178.067-.391.087-.677.058-1.155.179-1.436.362-.28.184-.468.498-.565.943-.039.154-.073.454-.102.899-.029.444-.058.976-.087 1.595-.029.618-.048 1.31-.058 2.073-.01.764-.014 1.532-.014 2.306v2.972c0 .803.01 1.474.029 2.016.02.541.034.971.043 1.29.01.32.034.595.073.827.02.27.058.488.116.652.058.165.155.29.29.377.135.087.324.14.565.16.242.019.566.029.972.029.773 0 1.435-.01 1.986-.03a22.32 22.32 0 0 0 1.407-.086c.387-.039.715-.092.986-.16.27-.067.512-.15.725-.246.445-.213.841-.575 1.189-1.088.348-.512.59-1.087.725-1.725.039-.155.077-.252.116-.29.039-.039.106-.058.203-.058.329 0 .493.096.493.29 0 .154-.029.396-.087.725-.058.328-.13.696-.218 1.102-.087.406-.183.826-.29 1.261-.106.435-.217.827-.333 1.175l-.058.203ZM106.409 61.514c.213 0 .348.029.406.087.058.058.106.193.145.406.116.56.638 1.803 1.566 3.726.928 1.924 2.272 4.568 4.031 7.932.174.328.324.609.45.84.125.233.236.445.333.639.097.193.188.391.275.594.087.203.189.43.305.682 1.43-2.746 2.59-4.993 3.48-6.743.89-1.75 1.595-3.151 2.117-4.205.522-1.053.89-1.846 1.102-2.378.213-.531.348-.952.406-1.261.039-.155.072-.247.101-.276.03-.029.102-.043.218-.043h.145c.193.019.382.029.565.029h2.059c.377 0 .682-.01.914-.03h.406c.155 0 .251.015.29.044.039.03.058.111.058.247 0 .193-.024.309-.073.348-.048.038-.198.067-.449.087-.425.019-.769.067-1.03.145a1.14 1.14 0 0 0-.609.406c-.145.193-.246.464-.304.812a8.373 8.373 0 0 0-.087 1.334c0 .328.005.792.014 1.392.01.599.02 1.27.03 2.015.01.745.024 1.523.043 2.335l.058 2.32c.02.734.034 1.401.043 2 .01.6.025 1.045.044 1.335.02.599.063 1.082.13 1.45.068.367.174.652.32.855.144.203.338.343.58.42.241.078.555.126.942.146.27.019.43.043.478.072.049.03.073.121.073.276 0 .174-.02.28-.058.319-.039.038-.155.058-.348.058l-3.219-.03H121.257c-.232 0-.556.006-.972.015-.415.01-.99.024-1.725.044h-.174c-.174 0-.261-.107-.261-.32 0-.154.029-.25.087-.29.058-.038.242-.067.551-.086.56-.02 1-.073 1.32-.16.319-.087.555-.29.71-.609.155-.319.246-.802.275-1.45a64.56 64.56 0 0 0 .044-2.711v-.986c0-.31-.005-.648-.014-1.015l-.03-1.204c-.01-.435-.024-.942-.043-1.522-.02-.6-.034-1.097-.044-1.494-.01-.396-.019-.763-.029-1.102a36.05 36.05 0 0 1-.014-1.03v-1.217c-.116.29-.237.57-.363.84-.125.271-.27.576-.435.914a83.446 83.446 0 0 1-1.465 2.886 232.349 232.349 0 0 0-3.175 6.307c-.802 1.673-1.29 2.799-1.464 3.379-.039.154-.073.251-.102.29a.452.452 0 0 1-.159.116c-.02 0-.106.019-.261.058-.155.038-.396.087-.725.145-.077 0-.135-.078-.174-.232a26.319 26.319 0 0 0-.551-1.436 50.647 50.647 0 0 0-.942-2.088c-.416-.88-.977-2.03-1.683-3.45-.705-1.422-1.628-3.263-2.769-5.525a28.709 28.709 0 0 1-.522-1.146 13.459 13.459 0 0 1-.377-1c.02.212.029.386.029.522v.681c0 .107-.005.29-.014.551-.01.261-.02.633-.03 1.117l-.043 2.03-.029 4.495c0 1.179.02 2.097.058 2.755.039.657.145 1.145.319 1.464.174.32.445.522.812.61.367.086.89.14 1.566.159.213.019.319.125.319.319 0 .174-.02.285-.058.333-.039.049-.126.073-.261.073h-.334c-.164 0-.352-.01-.565-.03l-2.32-.028h-1.015c-.348 0-.686.005-1.015.014l-.899.03a9.24 9.24 0 0 0-.667.043h-.174c-.193 0-.29-.116-.29-.348 0-.174.024-.276.072-.305.049-.029.208-.053.479-.072.464-.039.836-.111 1.116-.218.28-.106.508-.29.682-.55.174-.262.304-.634.391-1.117.087-.484.16-1.122.218-1.914.039-.368.077-.87.116-1.508.039-.638.082-1.33.13-2.074a586.172 586.172 0 0 0 .276-4.524c.039-.686.068-1.276.087-1.769.02-.493.029-.826.029-1 0-.812-.189-1.392-.566-1.74-.377-.348-1.02-.532-1.928-.551-.174 0-.29-.03-.348-.087-.058-.058-.087-.165-.087-.32 0-.154.029-.25.087-.29.058-.038.164-.057.319-.057h.348c.193 0 .425.01.696.029h1.928c.126 0 .261-.005.406-.015.145-.01.344-.014.595-.014h.203ZM136.184 62.297c-.967 0-1.846.183-2.639.55a5.67 5.67 0 0 0-2.03 1.581c-.56.687-.99 1.508-1.29 2.465-.3.957-.45 2.025-.45 3.205 0 1.314.188 2.523.565 3.625.377 1.102.904 2.054 1.581 2.856a7.176 7.176 0 0 0 2.407 1.87c.928.445 1.943.668 3.045.668.909 0 1.774-.165 2.596-.493a5.517 5.517 0 0 0 2.073-1.421c.638-.658 1.117-1.47 1.435-2.436.32-.967.479-2.069.479-3.306 0-1.373-.189-2.62-.565-3.741-.377-1.122-.904-2.083-1.581-2.886a7.057 7.057 0 0 0-2.45-1.87c-.958-.445-2.016-.667-3.176-.667Zm.986-1.102c1.373 0 2.639.237 3.799.71a9.005 9.005 0 0 1 3.001 1.972 9.041 9.041 0 0 1 1.972 2.987c.474 1.15.711 2.412.711 3.785 0 1.372-.251 2.644-.754 3.813a9.133 9.133 0 0 1-2.088 3.03c-.89.851-1.943 1.518-3.161 2.002-1.218.483-2.552.725-4.002.725-1.392 0-2.673-.237-3.843-.71a9.249 9.249 0 0 1-3.03-1.958 8.774 8.774 0 0 1-1.987-2.973c-.473-1.15-.71-2.402-.71-3.755 0-1.392.251-2.678.754-3.857a8.994 8.994 0 0 1 2.102-3.045c.9-.851 1.968-1.518 3.205-2.001 1.237-.484 2.581-.725 4.031-.725ZM157.717 62.297c-.967 0-1.846.183-2.639.55a5.67 5.67 0 0 0-2.03 1.581c-.56.687-.99 1.508-1.29 2.465-.3.957-.45 2.025-.45 3.205 0 1.314.189 2.523.566 3.625.376 1.102.903 2.054 1.58 2.856a7.176 7.176 0 0 0 2.407 1.87c.928.445 1.943.668 3.045.668.909 0 1.774-.165 2.595-.493a5.517 5.517 0 0 0 2.074-1.421c.638-.658 1.117-1.47 1.435-2.436.32-.967.479-2.069.479-3.306 0-1.373-.189-2.62-.566-3.741-.377-1.122-.903-2.083-1.58-2.886a7.057 7.057 0 0 0-2.45-1.87c-.958-.445-2.016-.667-3.176-.667Zm.986-1.102c1.373 0 2.639.237 3.799.71a9.005 9.005 0 0 1 3.001 1.972 9.041 9.041 0 0 1 1.972 2.987c.474 1.15.711 2.412.711 3.785 0 1.372-.251 2.644-.754 3.813a9.133 9.133 0 0 1-2.088 3.03c-.89.851-1.943 1.518-3.161 2.002-1.218.483-2.552.725-4.002.725-1.392 0-2.673-.237-3.843-.71a9.249 9.249 0 0 1-3.03-1.958 8.774 8.774 0 0 1-1.987-2.973c-.473-1.15-.71-2.402-.71-3.755 0-1.392.251-2.678.754-3.857a8.994 8.994 0 0 1 2.102-3.045c.9-.851 1.968-1.518 3.205-2.001 1.237-.484 2.581-.725 4.031-.725ZM173.839 70.852c.387.096.715.16.986.188.27.03.57.044.899.044 3.17 0 4.756-1.431 4.756-4.292 0-1.45-.377-2.576-1.131-3.379-.754-.802-1.827-1.203-3.219-1.203-1.14 0-1.808.135-2.001.406a.86.86 0 0 0-.101.26 3.735 3.735 0 0 0-.073.566c-.02.261-.034.624-.044 1.088-.01.464-.014 1.082-.014 1.856 0 .522-.005.928-.014 1.218-.01.29-.015.536-.015.74 0 .202-.005.396-.014.58-.01.183-.015.42-.015.71v1.218Zm-2.436-9.28h.218c.067 0 .202-.005.405-.015.203-.01.508-.02.914-.029.406-.01.986-.034 1.74-.072.6-.039 1.121-.063 1.566-.073.445-.01.754-.014.928-.014 1.875 0 3.345.435 4.408 1.305 1.063.87 1.595 2.078 1.595 3.625 0 2.32-1.199 3.953-3.596 4.9.696 1.412 1.368 2.625 2.016 3.64.647 1.015 1.28 1.847 1.899 2.494.619.648 1.242 1.131 1.87 1.45a4.215 4.215 0 0 0 1.929.479c.155 0 .251.01.29.029.039.019.058.058.058.116a8.15 8.15 0 0 0-.029.362c0 .03-.01.053-.029.073-.058.077-.222.135-.493.174-.27.038-.58.058-.928.058-2.165 0-3.973-.803-5.423-2.407a18.356 18.356 0 0 1-1.769-2.32c-.29-.445-.59-.943-.899-1.494a38.446 38.446 0 0 1-1.015-1.957c-.619.058-1.324.087-2.117.087h-.508c-.144 0-.343-.01-.594-.03v1.48c0 .831.005 1.537.014 2.117.01.58.025 1.063.044 1.45.02.386.043.696.072.928.03.232.073.406.131.522.097.232.31.41.638.536.329.126.89.227 1.682.305.097 0 .16.019.189.058.028.038.043.135.043.29 0 .135-.014.217-.043.246-.03.03-.112.044-.247.044h-.116a30.46 30.46 0 0 0-1.552-.03h-2.987c-.241 0-.497.006-.768.015l-.783.03c-.251.009-.454.014-.609.014h-.203c-.155 0-.251-.024-.29-.073-.039-.048-.058-.15-.058-.304 0-.155.024-.247.072-.276.049-.029.218-.063.508-.101.638-.097 1.092-.28 1.363-.551.27-.271.425-.706.464-1.305.058-.561.097-1.33.116-2.306.02-.976.029-2.334.029-4.074 0-2.262-.014-3.983-.043-5.162-.03-1.18-.073-1.992-.131-2.436-.116-.774-.735-1.17-1.856-1.19-.213 0-.319-.077-.319-.231 0-.194.014-.31.043-.348.03-.039.112-.058.247-.058l1.914.029ZM191.834 62.993c-1.044 0-1.904.034-2.581.101-.677.068-1.218.194-1.624.377-.406.184-.71.435-.913.754-.204.32-.353.73-.45 1.233-.058.212-.155.319-.29.319-.213 0-.353-.02-.42-.058-.068-.039-.102-.116-.102-.232s.02-.3.058-.551c.039-.252.092-.542.16-.87.067-.329.14-.687.217-1.073.077-.387.164-.774.261-1.16.058-.232.101-.372.13-.42.03-.05.092-.073.189-.073a.94.94 0 0 1 .218.014c.028.01.082.034.159.073.116.077.314.14.594.188.28.049.687.087 1.219.116a48.95 48.95 0 0 0 2.015.058c.812.01 1.808.015 2.987.015.638 0 1.358-.005 2.16-.015a3853.307 3853.307 0 0 0 4.423-.058c.619-.01 1.044-.024 1.276-.043.29-.02.522-.034.696-.044.174-.01.31-.024.406-.043.097-.02.179-.044.246-.073.068-.029.14-.072.218-.13a.515.515 0 0 1 .232-.058c.174 0 .261.058.261.174 0 .058-.029.217-.087.478-.058.261-.12.56-.189.9a21.989 21.989 0 0 1-.45 1.813l-.173.608a1.443 1.443 0 0 1-.116.304c-.039.068-.077.107-.116.116a.773.773 0 0 1-.174.015c-.174 0-.29-.02-.348-.058-.058-.039-.087-.116-.087-.232v-.189c0-.087.01-.179.029-.275v-.32c0-.367-.048-.661-.145-.884-.097-.222-.285-.396-.566-.522-.28-.125-.671-.208-1.174-.246a26.81 26.81 0 0 0-1.972-.058h-.696c-.232 0-.41.005-.537.014a4.56 4.56 0 0 1-.347.015h-.769c-.02.348-.039.826-.058 1.435-.02.61-.034 1.31-.044 2.103-.01.792-.014 1.667-.014 2.624v3.03c0 1.876.024 3.258.072 4.148.049.889.121 1.488.218 1.798.097.27.232.473.406.609.174.135.454.241.841.319.27.038.498.072.681.101.184.03.373.053.566.073.193.019.314.043.362.072.049.03.073.111.073.247 0 .174-.014.285-.043.333-.03.049-.121.073-.276.073h-.058a69.673 69.673 0 0 0-3.828-.087l-2.581.029c-.367.019-.696.034-.986.043-.29.01-.493.015-.609.015-.135 0-.222-.024-.261-.073-.039-.048-.058-.15-.058-.304 0-.155.029-.252.087-.29.058-.039.251-.078.58-.116a9.272 9.272 0 0 0 1.203-.203c.3-.078.537-.213.711-.406.174-.194.29-.455.348-.783.058-.329.106-.764.145-1.305.02-.31.034-.769.043-1.378.01-.609.02-1.3.03-2.073l.029-2.45c.01-.861.014-1.697.014-2.51l-.029-5.074h-1.392ZM220.327 61.775c-.02.154-.029.3-.029.435v.435c0 .425.014.918.043 1.479.03.56.063.976.102 1.247l.029.435c0 .193-.174.29-.522.29-.097 0-.16-.039-.189-.116a7.388 7.388 0 0 1-.159-.58c-.135-.561-.27-.991-.406-1.29-.135-.3-.29-.528-.464-.682-.406-.329-1.02-.59-1.841-.783a11.433 11.433 0 0 0-2.625-.29c-1.257 0-2.378.183-3.364.55-.986.368-1.822.905-2.508 1.61-.687.706-1.214 1.566-1.581 2.581s-.551 2.17-.551 3.466c0 1.604.242 2.972.725 4.103.483 1.131 1.237 2.083 2.262 2.857 1.45 1.102 3.18 1.653 5.191 1.653.773 0 1.503-.068 2.19-.203.686-.136 1.145-.31 1.377-.522.116-.097.208-.223.275-.377.068-.155.121-.368.16-.638.039-.271.068-.61.087-1.015.02-.406.029-.909.029-1.508 0-.774-.024-1.383-.072-1.827-.049-.445-.16-.783-.334-1.015-.174-.232-.44-.387-.797-.464-.358-.078-.846-.126-1.465-.145-.406-.039-.643-.073-.71-.102-.068-.029-.102-.12-.102-.275 0-.213.029-.348.087-.406.02 0 .043-.005.072-.015a.664.664 0 0 1 .174-.014H216.615a100.63 100.63 0 0 0 3.175-.044l1.016-.029c.318-.01.7-.024 1.145-.043h.232c.097 0 .155.014.174.043.02.03.029.111.029.247 0 .154-.02.251-.058.29-.039.038-.145.077-.319.116-.348.077-.6.227-.754.45-.155.222-.251.545-.29.97-.02.117-.034.325-.044.624l-.029.957-.029.986c-.01.32-.014.575-.014.769 0 .928.014 1.595.043 2 .03.407.083.716.16.929.02.058.029.116.029.174 0 .116-.184.212-.551.29-1.102.27-2.223.478-3.364.623-1.14.145-2.204.218-3.19.218-1.643 0-3.108-.208-4.394-.624-1.285-.415-2.373-1.015-3.262-1.798a7.763 7.763 0 0 1-2.044-2.87c-.474-1.132-.711-2.413-.711-3.843 0-1.798.377-3.403 1.131-4.814.754-1.412 1.808-2.504 3.161-3.277a13.88 13.88 0 0 1 3.465-1.334 16.75 16.75 0 0 1 3.988-.464c.251 0 .503.005.754.014.251.01.517.03.798.058.28.03.599.068.957.116.357.049.787.111 1.29.189a.9.9 0 0 0 .217.029h.189a.302.302 0 0 0 .116-.015c.02-.01.077-.053.174-.13a.515.515 0 0 1 .232-.058c.193 0 .29.096.29.29v.087ZM231.252 64.21c-.367.851-.667 1.543-.899 2.074-.232.532-.46 1.064-.682 1.595a180.745 180.745 0 0 0-1.783 4.394H231.078l2.088.029h.58c.155 0 .338-.01.551-.03l-3.045-8.061Zm-2.059 8.99h-.754c-.251 0-.56.01-.928.03a87.195 87.195 0 0 0-.798 2.03c-.203.541-.362.99-.478 1.348a6.682 6.682 0 0 0-.232.87c-.039.223-.058.42-.058.595 0 .386.155.662.464.826.31.165.841.266 1.595.305.097.019.16.053.189.101.028.049.043.179.043.392 0 .174-.097.26-.29.26h-.29c-.116 0-.232-.009-.348-.028-.387-.02-.73-.034-1.03-.044-.3-.01-.555-.014-.768-.014l-2.581.029a.9.9 0 0 1-.218.029h-.159c-.155 0-.232-.078-.232-.232 0-.194.01-.31.029-.348.02-.039.097-.068.232-.087.387-.136.74-.406 1.059-.812.319-.406.681-1.073 1.087-2.001a681.622 681.622 0 0 0 2.958-6.525c.793-1.779 1.43-3.224 1.914-4.336a71.263 71.263 0 0 0 1.044-2.494c.213-.55.319-.904.319-1.058.058-.232.106-.358.145-.377a.26.26 0 0 1 .145-.073c.058-.01.203-.024.435-.043l.493-.058c.193-.039.319-.063.377-.073a.911.911 0 0 1 .145-.014c.116 0 .184.077.203.232.058.328.164.744.319 1.247.155.502.406 1.227.754 2.175.348.947.807 2.175 1.377 3.683s1.3 3.422 2.19 5.742c.464 1.16.831 2.059 1.102 2.697.27.638.503 1.111.696 1.42.193.31.377.503.551.58.174.078.396.136.667.175.097 0 .145.087.145.26 0 .155-.014.257-.043.305-.03.049-.092.073-.189.073h-.218a2.03 2.03 0 0 1-.333-.03l-2.262-.028H235.993c-.28 0-.531.005-.754.014-.222.01-.362.015-.42.015h-.435c-.097 0-.164-.02-.203-.058-.039-.039-.058-.136-.058-.29 0-.155.02-.252.058-.29.039-.039.126-.058.261-.058 1.18-.02 1.769-.339 1.769-.957 0-.213-.145-.778-.435-1.697a67.66 67.66 0 0 0-1.189-3.378l-5.394-.03ZM244.903 62.993c-1.044 0-1.904.034-2.581.101-.677.068-1.218.194-1.624.377-.406.184-.71.435-.914.754-.202.32-.352.73-.449 1.233-.058.212-.155.319-.29.319-.213 0-.353-.02-.42-.058-.068-.039-.102-.116-.102-.232s.02-.3.058-.551c.039-.252.092-.542.16-.87.067-.329.14-.687.217-1.073.077-.387.164-.774.261-1.16.058-.232.101-.372.13-.42.03-.05.092-.073.189-.073a.94.94 0 0 1 .217.014c.03.01.083.034.16.073.116.077.314.14.595.188.28.049.686.087 1.218.116a48.95 48.95 0 0 0 2.015.058c.812.01 1.808.015 2.987.015.638 0 1.358-.005 2.16-.015a3853.307 3853.307 0 0 0 4.423-.058c.619-.01 1.044-.024 1.276-.043.29-.02.522-.034.696-.044.174-.01.31-.024.406-.043.097-.02.179-.044.246-.073.068-.029.14-.072.218-.13a.515.515 0 0 1 .232-.058c.174 0 .261.058.261.174 0 .058-.029.217-.087.478-.058.261-.12.56-.188.9a21.989 21.989 0 0 1-.45 1.813l-.174.608a1.443 1.443 0 0 1-.116.304c-.039.068-.077.107-.116.116a.773.773 0 0 1-.174.015c-.174 0-.29-.02-.348-.058-.058-.039-.087-.116-.087-.232v-.189c0-.087.01-.179.029-.275v-.32c0-.367-.048-.661-.145-.884-.097-.222-.285-.396-.566-.522-.28-.125-.671-.208-1.174-.246a26.81 26.81 0 0 0-1.972-.058h-.696c-.232 0-.41.005-.536.014a4.56 4.56 0 0 1-.349.015h-.768c-.02.348-.039.826-.058 1.435-.02.61-.034 1.31-.043 2.103-.01.792-.015 1.667-.015 2.624v3.03c0 1.876.024 3.258.072 4.148.049.889.121 1.488.218 1.798.097.27.232.473.406.609.174.135.454.241.841.319.27.038.498.072.681.101.184.03.373.053.566.073.193.019.314.043.362.072.049.03.073.111.073.247 0 .174-.014.285-.044.333-.029.049-.12.073-.275.073h-.058a69.673 69.673 0 0 0-3.828-.087l-2.581.029c-.367.019-.696.034-.986.043-.29.01-.493.015-.609.015-.135 0-.222-.024-.261-.073-.039-.048-.058-.15-.058-.304 0-.155.029-.252.087-.29.058-.039.251-.078.58-.116a9.272 9.272 0 0 0 1.204-.203c.3-.078.536-.213.71-.406.174-.194.29-.455.348-.783.058-.329.106-.764.145-1.305.02-.31.034-.769.043-1.378.01-.609.02-1.3.03-2.073.01-.774.019-1.59.028-2.45.01-.861.015-1.697.015-2.51l-.029-5.074h-1.392Z" />
        </g>
    </g>
</svg>
