<?xml version="1.0"?><svg xmlns="http://www.w3.org/2000/svg"  viewBox="0 0 50 50" width="50px" height="50px">    <path d="M49.794,27.392c-0.171-0.223-0.426-0.363-0.705-0.388c-0.481-0.043-0.951,0.312-1.068,0.792 C46.996,32.017,44.158,40,40.75,40C39.5,40,39,39.361,39,38.25c0-1.377,2.134-9.253,3.78-15.25C43.375,20.83,45,15.125,45,10 c0-3.314-2.686-6-6-6c-3.997,0-7.118,4.252-8.998,8.318C30.002,11.651,30,11,30,11c0-3.866-2.686-7-6-7 c-4.03,0-7.556,2.116-10.404,7.583l0.34-1.867c0.396-2.173-1.047-4.256-3.22-4.651C8.547,4.669,6.46,6.11,6.064,8.285l-6,33 c-0.396,2.173,1.047,4.256,3.22,4.651C3.526,45.979,3.767,46,4.005,46c1.896,0,3.579-1.354,3.931-3.285 c0,0,2.716-14.207,3.64-18.146C13.241,17.469,15.5,11,19.75,11c1.359,0,2.259,0.846,2.259,2.221c0,0.651-0.199,1.744-0.358,2.516 l-5.558,25.408c-0.473,2.158,0.895,4.291,3.053,4.763c0.288,0.063,0.575,0.093,0.858,0.093c1.839,0,3.494-1.276,3.903-3.146 c0,0,2.886-13.521,3.939-18.007C29.459,17.975,32.155,12,35.125,12c1.105,0,1.863,0.328,1.863,1.829 c0,0.851-0.797,3.596-0.797,3.596l-4.56,17.306C31.422,35.53,31,37.5,31,39.125c0,3,1.125,6.5,5.65,6.865L37,46 c9.728,0,12.856-17.098,12.984-17.826C50.033,27.898,49.964,27.614,49.794,27.392z"/></svg>